# xmcd CD database file
#
# Track frame offsets:
#	150
#	19422
#	36455
#	57762
#	84337
#	104142
#	111110
#	129352
#	151157
#	172597
#	197477
#
# Disc length: 2944 seconds
#
# Revision: 0
# Processed by: cddbd v1.5.1PL2 Copyright (c) Steve Scherf et al.
# Submitted via: CD2WAV32(JP) R3.22
#
DISCID=850b7e0b
DTITLE=Dutch Training - flow
DYEAR=2000
DGENRE=Rock
TTITLE0=HIGH LIFE
TTITLE1=LIMIT
TTITLE2=Stay
TTITLE3=Karin
TTITLE4=TRUTH
TTITLE5=FALL
TTITLE6=FLYING
TTITLE7=SHINE
TTITLE8=空の終わり
TTITLE9=RAYBORN
TTITLE10=flow
EXTD=
EXTT0=
EXTT1=
EXTT2=
EXTT3=
EXTT4=
EXTT5=
EXTT6=
EXTT7=
EXTT8=
EXTT9=
EXTT10=
PLAYORDER=
